<svg width="90" height="23" viewBox="0 0 90 23" fill="none" xmlns="http://www.w3.org/2000/svg">
<path fill-rule="evenodd" clip-rule="evenodd" d="M0.120685 18.1305C0.248756 17.9122 0.625363 17.2775 1.10722 16.5712C1.70446 15.6952 2.59335 14.4998 2.75439 14.3249C2.91543 14.1499 3.20708 13.9903 3.61158 14.1499C4.01482 14.3095 4.38635 14.6914 5.45277 14.7233C6.51919 14.7552 6.84253 14.9302 8.76361 15.0107C10.6859 15.0898 13.0927 15.1997 17.2886 14.9583C21.4833 14.7169 25.6297 14.6199 27.8856 14.7169C30.1427 14.814 33.257 14.6927 35.6865 14.7412C38.1148 14.7897 41.8162 14.7565 42.1383 14.7489C42.4604 14.7412 42.5631 14.6556 42.752 14.4922C42.9397 14.33 43.1514 14.1512 43.4431 13.9724C43.7335 13.7936 43.9528 13.717 44.3941 13.6621C44.8354 13.6084 45.6786 13.2125 46.5992 12.9878C47.5211 12.763 48.4024 12.5485 49.0072 11.9815C49.6121 11.4144 50.1167 11.0147 50.8902 10.4285C51.6625 9.84237 52.3472 9.36857 52.9153 8.97524C53.4821 8.5819 53.7725 8.41588 53.9285 8.20899C54.0844 8.00339 54.0489 7.80927 53.9817 7.61644C53.9145 7.4236 53.9234 7.44914 53.5138 7.27035C53.1042 7.09156 52.8849 6.9332 52.8849 6.33043C52.8849 5.72637 52.5552 5.39944 52.5552 5.39944C52.5552 5.39944 53.0916 5.39944 53.4923 5.67785C53.893 5.95625 54.0946 6.41599 54.1326 6.90766C54.1706 7.39933 54.2898 7.73393 54.2898 7.73393C54.2898 7.73393 54.7666 7.3342 54.9581 6.7774C55.1483 6.2206 54.9708 5.91666 54.8072 5.43265C54.6436 4.94864 54.9048 4.68939 54.7628 3.87207C54.6208 3.05602 54.7628 2.24892 55.3842 1.5925C56.0055 0.937368 56.06 0.604053 56.06 0.604053C56.06 0.604053 56.4962 1.52865 56.4303 2.35747C56.3656 3.18501 55.8242 3.67157 55.3068 4.16324C54.7882 4.65491 55.265 5.73787 55.265 5.73787C55.265 5.73787 55.4209 5.16574 55.7379 4.57957C56.055 3.99339 56.4468 3.56174 56.5609 3.42254C56.6763 3.28207 56.7638 3.4417 56.6294 3.60133C56.4937 3.76097 55.743 5.02015 55.5731 5.61527C55.4044 6.20911 55.3131 6.76208 55.1445 7.10561C54.9758 7.44914 54.7907 7.74031 54.669 7.82332C54.5473 7.90633 54.5054 8.06852 54.9112 7.98423C55.317 7.89994 55.686 7.74414 55.9079 7.58451C56.1298 7.4236 56.3466 7.62665 56.1095 7.808C55.8724 7.99062 55.3968 8.28179 55.1445 8.39034C54.8922 8.49889 54.7007 8.49506 54.5904 8.47846C54.48 8.46313 54.3837 8.44781 54.2784 8.60361C54.1732 8.76069 53.2298 9.6176 52.7771 10.0007C52.3244 10.3826 51.5369 10.9062 50.9181 11.5613C50.2981 12.2164 49.5677 12.7937 48.8043 13.187C48.0397 13.5803 47.1229 13.8524 46.3925 14.0388C45.6609 14.224 45.2754 14.5075 44.9977 14.5956C44.7213 14.6837 44.8316 14.8689 45.108 14.9123C45.3844 14.9557 46.2708 15.1741 48.3948 15.1741C50.5187 15.1741 52.3117 15.0873 53.0434 15.0324C53.775 14.9775 53.9614 14.9672 54.3051 14.7489C54.6474 14.5318 55.9611 13.7272 56.462 13.4054C56.9616 13.0836 57.2773 12.8371 57.6146 12.5485C57.9519 12.2599 58.307 12.0236 58.5986 11.4936C58.8903 10.9636 59.2288 10.343 59.5116 10.0454C59.7944 9.74914 60.1393 9.52821 60.294 9.03781C60.4487 8.5487 60.3346 7.72243 60.0974 7.25375C59.8603 6.78506 59.788 6.35597 60.171 5.61144C60.5527 4.86691 61.1436 4.76474 61.1436 4.76474C61.1436 4.76474 60.7492 5.50927 61.0193 6.24359C61.2881 6.9779 61.3148 8.10172 60.9965 8.57934C60.6782 9.05697 60.4335 9.29323 60.3346 9.45158C60.2369 9.60994 60.2116 9.74275 60.488 9.68145C60.7644 9.62016 61.4099 9.44775 62.0058 8.90883C62.6018 8.36863 62.8072 7.83864 62.8072 7.27035C62.8072 6.70205 62.7667 6.27296 62.9049 6.04181C63.0444 5.80938 63.1838 5.63953 63.2751 5.56802C63.3664 5.4965 63.4387 5.58717 63.3423 5.70977C63.2472 5.83237 63.1407 5.98817 63.0735 6.1261C63.0063 6.26274 62.9771 6.41088 63.0063 6.64714C63.0342 6.8834 63.0203 7.4236 62.9822 7.65602C62.9442 7.88845 62.8237 8.20516 62.7464 8.32265C62.669 8.44142 62.6982 8.55508 62.8567 8.43631C63.0152 8.31882 63.7012 7.8246 64.1006 7.09028C64.5001 6.35597 64.4696 6.1925 64.4367 5.73659C64.405 5.28195 64.3885 5.08145 64.4582 4.76346C64.528 4.44547 64.3251 3.90017 64.3035 3.27951C64.2845 2.66013 64.4227 1.48906 65.3547 0.75347C66.2867 0.017879 66.6811 0 66.6811 0C66.6811 0 66.1903 0.619378 66.3755 1.41244C66.5631 2.20677 66.4046 2.98195 65.9038 3.55153C65.4029 4.12365 65.1518 4.43909 64.9629 4.54253C64.7752 4.64597 64.67 4.85924 64.67 5.03165C64.67 5.20405 64.7118 5.64464 64.6979 5.79661C64.6839 5.94858 64.845 6.04436 64.9566 5.81066C65.0681 5.57568 65.1683 5.296 65.5208 4.88862C65.8733 4.48123 66.4985 3.86569 66.8447 3.61538C67.1921 3.36635 67.7779 2.92321 67.9149 2.81083C68.0518 2.69589 68.1178 2.86063 67.9656 3.01005C67.8134 3.15947 67.2504 3.54386 66.9474 3.79289C66.643 4.0432 66.0952 4.66258 65.8632 4.91927C65.6311 5.17596 65.5094 5.37646 65.4802 5.49012C65.4524 5.60378 65.5893 5.58207 65.7833 5.49012C65.9786 5.39817 66.217 5.15552 66.5276 5.02016C66.8383 4.88479 67.0057 4.72004 67.135 4.58595C67.2644 4.44931 67.7855 3.91549 68.3283 3.64475C68.8697 3.37401 69.1512 3.44553 69.874 3.77246C70.5968 4.10067 71.3195 3.74436 71.3195 3.74436C71.3195 3.74436 70.8428 4.32926 70.0477 4.86308C69.2527 5.39689 68.45 5.7251 67.887 5.7251C67.3227 5.7251 66.9106 5.53864 66.6874 5.48884C66.463 5.43903 66.2423 5.57185 66.0166 5.68806C65.7896 5.80428 65.4359 6.10566 65.2089 6.29978C64.9819 6.49389 64.864 6.76591 64.6776 7.07624C64.4912 7.38656 63.9979 7.96891 63.3588 8.48356C62.7185 8.99822 61.9209 9.46435 61.6444 9.57035C61.3693 9.67762 61.4479 9.77468 61.704 9.83343C61.9589 9.89089 62.1859 9.95475 63.1534 9.93687C64.1209 9.91899 64.6154 9.7683 65.0808 9.65847C65.5475 9.54736 65.8607 9.58184 65.9596 9.60611C66.061 9.62909 66.0306 9.75169 65.9 9.74531C65.7706 9.73892 65.3636 9.7683 64.9629 9.87812C64.5635 9.98795 64.268 10.0467 64.1552 10.0518C64.0423 10.0569 64.0017 10.1565 64.1501 10.2319C64.2972 10.3085 64.4937 10.3468 65.3332 10.3379C66.1713 10.3289 66.6278 10.5665 67.2517 11.3365C67.8743 12.1066 68.729 12.4259 68.729 12.4259C68.729 12.4259 67.6156 12.7209 66.728 12.6877C65.8391 12.6557 65.0504 12.3199 64.5774 11.9099C64.1032 11.5 63.8546 10.5013 63.7215 10.3391C63.5896 10.1757 63.4729 10.1667 63.3474 10.1999C63.2231 10.2319 62.4091 10.274 61.7624 10.1757C61.1144 10.0773 60.8646 10.0199 60.7403 9.99561C60.6148 9.97007 60.4905 9.94708 60.3003 10.1105C60.1101 10.274 59.6853 10.8793 59.5281 11.4617C59.3696 12.0428 59.012 12.7183 58.2436 13.4067C57.4764 14.0963 55.9269 14.9787 55.6365 15.1524C55.3461 15.3235 55.4273 15.5074 55.6834 15.5304C55.9396 15.5534 56.6154 15.851 59.1185 15.851C61.6216 15.851 61.8765 16.0234 63.9611 16.1498C66.0458 16.2762 68.7251 16.0745 69.226 16.0029C69.7256 15.9314 69.8981 15.8242 70.0883 15.6351C70.2798 15.4474 71.1763 14.4462 71.7481 13.8409C72.32 13.2368 72.7664 12.6736 73.143 12.2739C73.5196 11.8755 74.1878 11.5741 74.9398 11.3812C75.693 11.1884 76.4589 10.6801 77.0866 10.3775C77.713 10.0748 80.055 8.70067 80.4443 8.4261C80.8336 8.15153 80.9465 8.37118 80.5559 8.6317C80.1654 8.8935 78.3686 10.0122 77.6128 10.4822C76.8583 10.9534 76.0468 11.5639 75.4914 11.7682C74.9347 11.9725 74.4174 12.1922 74.0522 12.5523C73.6857 12.9137 72.5255 14.1908 72.3898 14.3236C72.2554 14.4564 72.4456 14.496 72.6358 14.3402C72.826 14.1844 73.3585 13.846 73.9228 13.5714C74.4884 13.2968 75.0362 13.2023 75.2188 13.1793C75.4026 13.1551 75.4825 13.3198 75.1883 13.4143C74.8941 13.5088 74.3058 13.6889 73.8049 13.9469C73.304 14.2048 72.1438 15.0132 71.9206 15.1933C71.6974 15.3733 71.8166 15.4525 72.0398 15.4206C72.263 15.3899 73.4689 15.3197 74.2944 15.2316C75.1211 15.1435 75.6765 15.1103 75.972 15.1013C76.2661 15.0937 76.4056 14.9966 76.7493 14.86C77.0929 14.7233 77.363 14.5215 77.7548 14.0861C78.1479 13.6506 78.3964 13.3913 79.2016 13.0899C80.0069 12.7873 80.419 12.6264 80.793 12.362C81.1671 12.0977 82.0585 11.6162 82.4618 11.6532C82.8637 11.6916 82.7103 11.8333 82.4998 11.8614C82.288 11.8895 81.848 11.9661 81.3497 12.3148C80.8501 12.6647 80.4291 13.1474 79.8154 13.4309C79.2016 13.7157 78.1099 14.5369 77.9552 14.745C77.8017 14.9532 77.9463 15.0004 78.0807 15.0566C78.2151 15.1128 78.7414 15.2648 79.4515 15.1984C80.1603 15.132 80.8323 14.943 81.176 14.4041C81.5209 13.8651 81.6553 13.4118 82.288 12.8537C82.9221 12.2956 83.4103 12.2867 84.3587 12.1551C85.3072 12.0236 85.6915 11.6456 85.6915 11.6456C85.6915 11.6456 85.519 12.2688 85.1259 12.7975C84.7328 13.3275 83.9948 14.0644 83.1985 14.5177C82.4034 14.9711 81.5881 14.9992 81.2432 15.0196C80.8983 15.0388 80.6485 15.1243 80.3213 15.2175C79.9954 15.312 79.5351 15.4066 79.4299 15.4155C79.3246 15.4257 79.3246 15.5585 79.4451 15.6134C79.5643 15.6684 80.1945 15.9595 80.4494 16.0617C80.7043 16.1639 81.4309 16.1639 81.6388 16.1639C81.8468 16.1639 81.9748 16.0936 82.094 15.9991C82.2132 15.9046 82.6761 15.4244 84.0088 15.2597C85.3415 15.0949 86.1315 15.8331 86.1315 15.8331C86.1315 15.8331 85.4442 15.676 84.8469 15.865C84.2484 16.054 83.5941 16.3848 82.9309 16.4474C82.2703 16.5099 82.0294 16.3848 81.8303 16.3452C81.6299 16.3056 81.2495 16.3107 81.157 16.3107C81.0631 16.3107 80.9553 16.395 81.0872 16.4844C81.2191 16.5725 81.6502 17.0169 81.9013 17.2213C82.1511 17.4256 82.4795 17.6159 82.6152 17.6567C82.7509 17.6989 83.0653 17.7206 83.2365 17.7206C83.4077 17.7206 83.8718 17.7627 84.2433 17.5801C84.6136 17.3962 85.5063 17.0233 86.9062 17.0948C88.3061 17.1651 89.999 18.2353 89.999 18.2353C89.999 18.2353 89.1494 18.2697 88.4697 18.4319C87.7913 18.5941 87.0482 19.0232 85.9197 18.7844C84.7911 18.5456 84.3207 18.0807 84.1064 17.9888C83.8934 17.8981 83.6575 17.9109 83.4204 17.9185C83.1845 17.9249 83.1199 17.9326 83.0704 17.9326C83.0197 17.9326 82.8916 17.9824 83.0058 18.045C83.1199 18.1076 83.4318 18.2838 83.7095 18.5877C83.9859 18.8904 84.0671 19.3182 84.2243 19.5149C84.3828 19.7115 84.2548 19.7805 84.0823 19.6285C83.9086 19.4778 83.7831 19.1752 83.6753 18.9466C83.5688 18.7193 83.1719 18.3872 82.8003 18.2621C82.4275 18.1369 81.9862 17.7346 81.6211 17.4626C81.2559 17.1893 80.5914 16.8177 80.4228 16.7539C80.2554 16.6913 80.1045 16.7539 79.9828 16.8739C79.861 16.9939 79.809 17.409 80.1501 17.6325C80.4925 17.8547 80.6218 17.8521 80.8285 18.1216C81.0352 18.3898 81.3396 18.7001 81.6781 18.9849C82.0167 19.271 82.4795 20.0436 82.3312 20.6706C82.1828 21.2977 81.3649 21.8021 80.968 22.1444C80.5711 22.4866 80.7854 22.9987 80.7854 22.9987C80.7854 22.9987 80.3644 22.7714 80.3568 22.0946C80.3479 21.419 80.2744 21.313 80.0424 20.8967C79.8103 20.4816 79.7279 20.0257 80.0829 19.6349C80.438 19.2441 80.5128 18.8534 80.5293 18.5277C80.5458 18.2021 80.4963 18.0475 80.3391 17.9824C80.1831 17.9173 79.7786 17.7219 79.6873 17.4448C79.596 17.1676 79.6531 16.8739 79.7507 16.736C79.8484 16.5993 79.8204 16.5023 79.7165 16.3924C79.6112 16.2813 79.2498 16.1511 78.9011 16.1026C78.5537 16.054 77.7231 15.9582 77.4657 15.8688C77.2083 15.7795 76.9991 15.7399 76.6389 15.8318C76.2776 15.9225 75.7146 16.0413 74.8104 16.114C73.9051 16.1868 72.3264 16.1779 72.0411 16.1779C71.7545 16.1779 71.5605 16.2418 71.4679 16.3695C71.3753 16.4972 71.2244 16.8228 70.9429 16.9735C70.6627 17.1242 70.4383 17.1944 70.3178 17.2021C70.1973 17.2098 69.9412 17.4396 70.2062 17.5341C70.47 17.6286 71.1636 17.9594 71.8166 18.4C72.4697 18.8406 72.6801 19.2518 73.0149 19.4536C73.3484 19.6554 73.7339 19.6771 74.198 19.6477C74.6595 19.6183 75.4876 19.6209 76.2687 20.3909C77.0511 21.1623 77.538 21.2772 77.538 21.2772C77.538 21.2772 76.8152 21.3436 76.2015 21.3181C75.589 21.2926 75.059 21.1853 74.5467 20.8124C74.0344 20.4395 74.0598 20.4152 73.9672 20.3233C73.8746 20.2326 73.7237 20.1662 73.5297 20.1662C73.337 20.1662 73.0339 20.0755 72.7727 19.8431C72.5115 19.6107 71.932 19.0909 71.2625 18.7525C70.593 18.4153 69.3972 18.0795 69.155 17.8968C68.9128 17.7142 68.8203 17.5674 68.5958 17.6031C68.3701 17.6389 65.9063 17.9581 64.5673 17.9249C63.2282 17.8943 60.3219 17.7972 58.9017 17.6861C57.4815 17.575 54.7603 17.7078 51.7284 17.6057C48.6978 17.5061 46.3126 17.4384 42.8395 17.5725C39.3651 17.7066 34.4375 17.8943 31.9027 17.9977C29.3679 18.1012 23.3752 18.2059 21.0255 18.1803C18.6746 18.1548 16.9336 18.2072 14.5839 18.2851C12.2342 18.3642 9.27716 18.4677 7.69339 18.4677C6.10961 18.4677 3.19947 18.6988 2.02274 18.7474C0.846001 18.7959 0.290602 18.7627 0.0940562 18.6822C-0.0923448 18.6082 0.0395307 18.2697 0.120685 18.1305Z" fill="#142C73"/>
</svg>
